<?xml version="1.0" encoding="UTF-8" standalone="no"?>
<!-- Created with Inkscape (http://www.inkscape.org/) -->

<svg
   xmlns:dc="http://purl.org/dc/elements/1.1/"
   xmlns:cc="http://creativecommons.org/ns#"
   xmlns:rdf="http://www.w3.org/1999/02/22-rdf-syntax-ns#"
   xmlns:svg="http://www.w3.org/2000/svg"
   xmlns="http://www.w3.org/2000/svg"
   xmlns:sodipodi="http://sodipodi.sourceforge.net/DTD/sodipodi-0.dtd"
   xmlns:inkscape="http://www.inkscape.org/namespaces/inkscape"
   inkscape:version="0.91 r13725"
   version="1.1"
   id="svg2"
   viewBox="0 0 744.09448819 1052.3622047"
   height="297mm"
   width="210mm"
   sodipodi:docname="enfermera.svg">
  <defs
     id="defs4" />
  <sodipodi:namedview
     inkscape:window-maximized="0"
     inkscape:window-y="-32000"
     inkscape:window-x="-32000"
     inkscape:window-height="838"
     inkscape:window-width="1600"
     showgrid="false"
     inkscape:current-layer="layer1"
     inkscape:document-units="px"
     inkscape:cy="701.73728"
     inkscape:cx="457.4963"
     inkscape:zoom="0.70710678"
     inkscape:pageshadow="2"
     inkscape:pageopacity="0.0"
     borderopacity="1.0"
     bordercolor="#666666"
     pagecolor="#ffffff"
     id="base"
     showguides="false" />
  <metadata
     id="metadata7">
    <rdf:RDF>
      <cc:Work
         rdf:about="">
        <dc:format>image/svg+xml</dc:format>
        <dc:type
           rdf:resource="http://purl.org/dc/dcmitype/StillImage" />
        <dc:title></dc:title>
      </cc:Work>
    </rdf:RDF>
  </metadata>
  <g
     inkscape:label="Capa 1"
     inkscape:groupmode="layer"
     id="layer1">
    <path
       sodipodi:type="inkscape:offset"
       inkscape:radius="20.260689"
       inkscape:original="M 395.9668 107.88281 A 193.64859 193.64859 0 0 0 202.31836 301.53125 A 193.64859 193.64859 0 0 0 395.9668 495.17969 A 193.64859 193.64859 0 0 0 589.61523 301.53125 A 193.64859 193.64859 0 0 0 395.9668 107.88281 z "
       style="opacity:0.689;fill:#000000;fill-opacity:1;stroke:none;stroke-width:2;stroke-linecap:round;stroke-linejoin:round;stroke-miterlimit:4;stroke-dasharray:none;stroke-dashoffset:0;stroke-opacity:1"
       id="path4311"
       d="m 395.9668,87.623047 c -56.00127,4.3e-5 -111.65699,23.053473 -151.25586,62.652343 -39.59888,39.59887 -62.6523,95.2546 -62.65235,151.25586 5e-5,56.00126 23.05347,111.65699 62.65235,151.25586 39.59887,39.59887 95.25459,62.6523 151.25586,62.65234 56.00126,-4e-5 111.65699,-23.05347 151.25586,-62.65234 39.59887,-39.59887 62.6523,-95.2546 62.65234,-151.25586 -4e-5,-56.00126 -23.05347,-111.65699 -62.65234,-151.25586 C 507.62379,110.67652 451.96806,87.623093 395.9668,87.623047 Z"
       transform="matrix(0.92727558,0,0,0.92727558,28.796454,21.928682)"
       inkscape:export-xdpi="29.040001"
       inkscape:export-ydpi="29.040001" />
    <circle
       style="opacity:1;fill:#ffffff;fill-opacity:1;stroke:none;stroke-width:2;stroke-linecap:round;stroke-linejoin:round;stroke-miterlimit:4;stroke-dasharray:none;stroke-dashoffset:0;stroke-opacity:1"
       id="path4184"
       cx="395.96661"
       cy="301.53195"
       r="179.56561"
       inkscape:export-xdpi="29.040001"
       inkscape:export-ydpi="29.040001" />
    <path
       style="opacity:1;fill:#1c3954;fill-opacity:1;stroke:none;stroke-width:2;stroke-linecap:round;stroke-linejoin:round;stroke-miterlimit:4;stroke-dasharray:none;stroke-dashoffset:0;stroke-opacity:1"
       d="M 391.22852 261.39844 A 179.73866 94.405319 0 0 0 316.44141 270.08594 L 292.82422 371.97266 C 288.41778 390.98195 300.29227 409.274 319.44922 412.98633 C 326.21109 414.29668 332.94627 413.60103 339.0293 411.32812 C 354.84649 423.70882 374.7464 431.0995 396.33203 431.09961 C 418.08706 431.0995 438.12928 423.59182 454.00586 411.03516 C 460.28581 413.54156 467.30377 414.3517 474.34961 412.98633 C 493.50656 409.274 505.38105 390.98195 500.97461 371.97266 L 478.07227 273.17188 A 179.73866 94.405319 0 0 0 391.22852 261.39844 z "
       id="rect4244"
       inkscape:export-xdpi="29.040001"
       inkscape:export-ydpi="29.040001" />
    <path
       style="opacity:1;fill:#ffffff;fill-opacity:1;stroke:none;stroke-width:2;stroke-linecap:round;stroke-linejoin:round;stroke-miterlimit:4;stroke-dasharray:none;stroke-dashoffset:0;stroke-opacity:1"
       d="M 365.80078 274.33789 C 363.80981 274.4327 361.82218 274.54066 359.83789 274.66016 A 42.812067 65.714454 43.144709 0 1 358.53516 284.16797 C 358.24405 285.96983 357.83361 287.46521 357.18945 289.22852 A 42.812067 65.714454 43.144709 0 1 343.57422 315.42188 A 42.812067 65.714454 43.144709 0 1 311.87695 342.82227 C 313.00836 388.41395 350.38646 422.42555 396.33203 422.42578 C 442.99029 422.42555 480.81422 384.60162 480.81445 337.94336 C 480.78025 324.21759 477.4022 313.45686 470.97266 301.33008 C 459.45378 308.82807 445.52013 312.88527 431.20312 312.91016 C 399.91987 312.87626 372.80232 301.22544 365.80078 274.33789 z "
       id="path4224"
       inkscape:export-xdpi="29.040001"
       inkscape:export-ydpi="29.040001" />
    <g
       id="g4256"
       transform="translate(2.2677752,0)"
       style="fill:#1c3954;fill-opacity:1"
       inkscape:export-xdpi="29.040001"
       inkscape:export-ydpi="29.040001">
      <circle
         r="13.607973"
         cy="337.9436"
         cx="365.14731"
         id="path4213"
         style="opacity:1;fill:#1c3954;fill-opacity:1;stroke:none;stroke-width:2;stroke-linecap:round;stroke-linejoin:round;stroke-miterlimit:4;stroke-dasharray:none;stroke-dashoffset:0;stroke-opacity:1" />
      <circle
         style="opacity:1;fill:#1c3954;fill-opacity:1;stroke:none;stroke-width:2;stroke-linecap:round;stroke-linejoin:round;stroke-miterlimit:4;stroke-dasharray:none;stroke-dashoffset:0;stroke-opacity:1"
         id="circle4254"
         cx="422.9812"
         cy="337.9436"
         r="13.607973" />
    </g>
    <path
       style="opacity:1;fill:#1c3954;fill-opacity:1;stroke:none;stroke-width:2;stroke-linecap:round;stroke-linejoin:round;stroke-miterlimit:4;stroke-dasharray:none;stroke-dashoffset:0;stroke-opacity:1"
       d="m 311.56608,205.56376 c 43.51057,-49.28733 134.26473,-38.58718 170.66667,0 l -14.39478,57.28982 c -44.88482,-9.14753 -83.29089,-12.96275 -144.8932,-1.60372 z"
       id="rect4260"
       inkscape:connector-curvature="0"
       sodipodi:nodetypes="ccccc"
       inkscape:export-xdpi="29.040001"
       inkscape:export-ydpi="29.040001" />
    <path
       sodipodi:type="inkscape:offset"
       inkscape:radius="-7.0698209"
       inkscape:original="M 399.56445 165.89258 C 366.88685 164.55506 333.32169 174.20204 311.56641 198.8457 L 322.94531 254.5332 C 384.54762 243.17417 422.95307 246.98919 467.83789 256.13672 L 482.23242 198.8457 C 464.03145 179.55211 432.24206 167.2301 399.56445 165.89258 z "
       style="opacity:1;fill:#ffffff;fill-opacity:1;stroke:none;stroke-width:2;stroke-linecap:round;stroke-linejoin:round;stroke-miterlimit:4;stroke-dasharray:none;stroke-dashoffset:0;stroke-opacity:1"
       id="path4300"
       d="m 399.27539,172.95703 c -29.93065,-1.22508 -59.98816,7.39906 -80.01758,28.21875 l 9.25586,45.30078 c 55.39125,-9.4347 93.20515,-6.44696 134.0918,1.46875 l 11.75195,-46.77148 c -16.88356,-15.99867 -45.55591,-27.00827 -75.08203,-28.2168 z"
       transform="translate(0,6.7175144)"
       inkscape:export-xdpi="29.040001"
       inkscape:export-ydpi="29.040001" />
    <text
       xml:space="preserve"
       style="font-style:normal;font-variant:normal;font-weight:normal;font-stretch:condensed;font-size:91.99987793px;line-height:125%;font-family:Impact;-inkscape-font-specification:'Impact Condensed';letter-spacing:0px;word-spacing:0px;fill:#d40000;fill-opacity:1;stroke:none;stroke-width:1px;stroke-linecap:butt;stroke-linejoin:miter;stroke-opacity:1;"
       x="371.85001"
       y="248.5968"
       id="text4305"
       sodipodi:linespacing="125%"
       inkscape:export-xdpi="29.040001"
       inkscape:export-ydpi="29.040001"><tspan
         sodipodi:role="line"
         id="tspan4307"
         x="371.85001"
         y="248.5968">+</tspan></text>
  </g>
</svg>
